<?xml version="1.0" standalone="no"?>
<!DOCTYPE svg PUBLIC "-//W3C//DTD SVG 1.1//EN" "http://www.w3.org/Graphics/SVG/1.1/DTD/svg11.dtd" >
<svg xmlns="http://www.w3.org/2000/svg">
<metadata>
Created by FontForge 20120731 at Mon Jul  3 13:31:31 2017
 By admin
</metadata>
<defs>
<font id="iconfont" horiz-adv-x="1024" >
  <font-face 
    font-family="iconfont"
    font-weight="500"
    font-stretch="normal"
    units-per-em="1024"
    panose-1="2 0 6 3 0 0 0 0 0 0"
    ascent="896"
    descent="-128"
    x-height="792"
    bbox="-0.0294113 -212 1153 896"
    underline-thickness="0"
    underline-position="0"
    unicode-range="U+0078-E770"
  />
<missing-glyph 
 />
    <glyph glyph-name=".notdef" 
 />
    <glyph glyph-name=".notdef" 
 />
    <glyph glyph-name=".null" horiz-adv-x="0" 
 />
    <glyph glyph-name="nonmarkingreturn" horiz-adv-x="341" 
 />
    <glyph glyph-name="x" unicode="x" horiz-adv-x="1001" 
d="M281 543q-27 -1 -53 -1h-83q-18 0 -36.5 -6t-32.5 -18.5t-23 -32t-9 -45.5v-76h912v41q0 16 -0.5 30t-0.5 18q0 13 -5 29t-17 29.5t-31.5 22.5t-49.5 9h-133v-97h-438v97zM955 310v-52q0 -23 0.5 -52t0.5 -58t-10.5 -47.5t-26 -30t-33 -16t-31.5 -4.5q-14 -1 -29.5 -0.5
t-29.5 0.5h-32l-45 128h-439l-44 -128h-29h-34q-20 0 -45 1q-25 0 -41 9.5t-25.5 23t-13.5 29.5t-4 30v167h911zM163 247q-12 0 -21 -8.5t-9 -21.5t9 -21.5t21 -8.5q13 0 22 8.5t9 21.5t-9 21.5t-22 8.5zM316 123q-8 -26 -14 -48q-5 -19 -10.5 -37t-7.5 -25t-3 -15t1 -14.5
t9.5 -10.5t21.5 -4h37h67h81h80h64h36q23 0 34 12t2 38q-5 13 -9.5 30.5t-9.5 34.5q-5 19 -11 39h-368zM336 498v228q0 11 2.5 23t10 21.5t20.5 15.5t34 6h188q31 0 51.5 -14.5t20.5 -52.5v-227h-327z" />
    <glyph glyph-name="gengduo" unicode="&#xe601;" horiz-adv-x="1000" 
d="M160.5 397q-34.5 0 -58.5 -23.5t-24 -57t24 -57.5t58.5 -24t58.5 24t24 57.5t-24 57t-58.5 23.5zM514.5 397q-34.5 0 -58.5 -23.5t-24 -57t24 -57.5t58.5 -24t58.5 24t24 57.5t-24 57t-58.5 23.5zM868.5 397q-34.5 0 -58.5 -23.5t-24 -57t24 -57.5t58.5 -24t58.5 24
t24 57.5t-24 57t-58.5 23.5z" />
    <glyph glyph-name="unfold" unicode="&#xe661;" 
d="M890.5 565q-9.5 9 -23 9t-22.5 -9l-328 -331l-332 329q-10 10 -23 10t-22.5 -9.5t-9.5 -23t10 -22.5l353 -350l1 -0.5l1 -0.5v-1q10 -9 23 -9t22 9l350 354q10 9 10 22.5t-9.5 22.5z" />
    <glyph glyph-name="fold" unicode="&#xe6de;" 
d="M887 279l-353 350l-1 0.5l-1 0.5v1q-10 9 -23 9t-22 -10l-350 -353q-10 -9 -10 -22.5t9.5 -22.5t23 -9t22.5 9l328 331l332 -330q10 -9 23 -9t22.5 9.5t9.5 23t-10 22.5z" />
    <glyph glyph-name="duan" unicode="&#xe605;" 
d="M552 383h91v-96h-91v96zM510.5 713q-112.5 0 -207.5 -55t-150.5 -150.5t-55.5 -207.5t55.5 -207t150.5 -150.5t207.5 -55.5t207.5 55.5t150 150.5t55 207t-55 207.5t-150 150.5t-207.5 55zM463 459h196q30 34 34 34q3 0 7 -3q52 -34 52 -37t-2 -5q-1 -1 -2 -1h-48h-3
h-234q-7 0 -7 7q0 5 7 5zM552 275v-4q0 -14 -6 -17q-5 -4 -34 -5q-26 -1 -32 3q-7 4 -7 19v144q0 3 2 4q2 2 5 0l74 -24h86l31 29q3 3 5 3l6 -3l52 -28q9 -6 10 -11q0 -5 -12 -12q-7 -4 -7 -12v-95q0 -8 -6 -11q-8 -4 -57 -6q-11 -1 -15 4t-4 9v13h-91zM395 233
q-26 -94 -129 -146q-6 -3 -8 -1q-2 3 3 8q46 57 59 105q7 29 10 83h-62q-8 0 -8 7q1 5 8 5h63q2 31 3 70q-38 -44 -77 -67q-6 -3 -8 -2q-1 2 2 6q38 46 54 186q1 5 3 6q2 2 6 1l81 -13q16 -2 15 -8q-1 -7 -11 -9t-13 -10q-15 -33 -28 -56h43q10 17 22 33q2 4 5 4t6 -3
q37 -37 37 -40t-2 -5q0 -1 -1 -1h-36h-2h-18q0 -51 -5 -91q26 35 30 35q3 0 5 -2q4 -6 8 -11q21 -27 20 -33q-1 -2 -3 -2h-32h-3h-27q-3 -18 -6 -35q54 -16 79 -48q13 -18 10 -35t-16 -27q-14 -9 -27 -8q-38 4 -34 33q4 48 -16 71zM752 102h-2h-47h-3h-277q-8 0 -8 5
q0 6 7 6h106q-7 5 -11 10q-7 10 -6 26q2 32 -2 49t-20 36q-2 3 0 4q1 2 5 2q35 -12 62 -34q28 -22 32 -43q6 -12 2 -26q-7 -15 -23 -24h40q32 76 37 119q0 8 7 7q90 -15 95 -20q2 -4 0 -8q-3 -4 -12 -6q-11 -2 -14 -5q-36 -43 -80 -87h22q31 42 34 42t8 -3q50 -41 50 -45
q0 -3 -2 -5z" />
    <glyph glyph-name="pandianjihua" unicode="&#xe619;" 
d="M848 737v-73q0 -35 -25 -59.5t-59.5 -24.5t-59 24.5t-24.5 59.5v84h-336v-84q0 -35 -24.5 -59.5t-59 -24.5t-59.5 24.5t-25 59.5v73q-49 -17 -80.5 -60t-31.5 -97v-560q0 -69 49.5 -118.5t118.5 -49.5h560q69 0 118.5 49.5t49.5 118.5v560q0 54 -31.5 97t-80.5 60z
M848 20q0 -23 -16.5 -39.5t-39.5 -16.5h-560q-23 0 -39.5 16.5t-16.5 39.5v448h672v-448zM624 188h112v-112h-112v112zM624 356h112v-112h-112v112zM456 188h112v-112h-112v112zM456 356h112v-112h-112v112zM288 188h112v-112h-112v112zM288 356h112v-112h-112v112z
M763.5 636q-11.5 0 -19.5 8t-8 20v84h56v-84q0 -12 -8.5 -20t-20 -8zM260.5 636q-11.5 0 -20 8t-8.5 20v84h56v-84q0 -12 -8 -20t-19.5 -8z" />
    <glyph glyph-name="add-round" unicode="&#xe657;" 
d="M511.5 736q-91.5 0 -174 -35.5t-142.5 -95.5t-95.5 -143t-35.5 -174t35.5 -174t95.5 -143t142.5 -95t174 -35t174 35t142.5 95t95.5 143t35.5 174t-35.5 174t-95.5 143t-142.5 95.5t-174 35.5zM761 293v-14v0q-2 -22 -18.5 -37.5t-38.5 -15.5h-130v-187h-71v0
q-23 1 -38.5 17.5t-15.5 39.5v130h-187v71v0q1 22 17.5 37.5t39.5 15.5h130v131v57h71v0q23 -2 38.5 -18.5t15.5 -38.5v-131h187v-57z" />
    <glyph glyph-name="tishi" unicode="&#xe6b3;" 
d="M512.5 193q-10.5 0 -18 7.5t-7.5 17.5v328q0 10 7.5 17.5t18 7.5t18 -7.5t7.5 -17.5v-328q0 -10 -7.5 -17.5t-18 -7.5zM512.5 27q-10.5 0 -18 7.5t-7.5 17.5v2q0 11 7.5 18.5t18 7.5t18 -7.5t7.5 -18.5v-2q0 -10 -7.5 -17.5t-18 -7.5zM512.5 -135q-88.5 0 -168.5 34
q-78 33 -138.5 93.5t-93.5 138.5q-34 81 -34 169t34 169q33 78 93.5 138.5t138.5 93.5q80 34 168.5 34t169.5 -34q78 -33 138.5 -93.5t93.5 -138.5q34 -81 34 -169t-34 -169q-33 -78 -93.5 -138.5t-138.5 -93.5q-81 -34 -169.5 -34zM513 684q-77 0 -147 -29t-124.5 -83.5
t-83.5 -124.5t-29 -147t29 -147t83.5 -124.5t124.5 -83.5t147 -29t147 29t124.5 83.5t83.5 124.5t29 147t-29 147t-83.5 124.5t-124.5 83.5t-147 29z" />
    <glyph glyph-name="iconfont31" unicode="&#xe70e;" 
d="M512 812q-139 0 -257 -68.5t-186.5 -186.5t-68.5 -257t68.5 -257t186.5 -186.5t257 -68.5t257 68.5t186.5 186.5t68.5 257t-68.5 257t-186.5 186.5t-257 68.5zM512 -164q-192 0 -328 136t-136 328t136 328t328 136t328 -136t136 -328t-136 -328t-328 -136zM654 340
l-243 159q-29 16 -49 4.5t-20 -44.5v-318q0 -33 20 -44.5t49 4.5l243 159q28 17 28 40t-28 40z" />
    <glyph glyph-name="wode" unicode="&#xe66d;" 
d="M527.5 -142q-93.5 0 -178.5 36q-82 35 -146 98.5t-98 145.5q-36 85 -36 178.5t36 178.5q34 83 98 146.5t146 98.5q85 36 178.5 36t178.5 -36q83 -35 146.5 -98.5t97.5 -146.5q36 -85 36 -178.5t-36 -178.5q-34 -82 -97.5 -145.5t-146.5 -98.5q-85 -36 -178.5 -36z
M527.5 754q-88.5 0 -169.5 -34.5t-140 -93t-93.5 -139.5t-34.5 -170t34.5 -170t93.5 -139.5t140 -93.5t169.5 -35t169.5 35t140 93.5t93.5 139.5t34.5 170t-34.5 170t-93.5 139.5t-140 93t-169.5 34.5zM527.5 -147q-94.5 0 -180.5 36q-83 35 -147.5 99.5t-99.5 147.5
q-37 86 -37 180.5t37 180.5q35 84 99.5 148t147.5 99q86 37 180.5 37t180.5 -37q83 -35 147.5 -99t99.5 -148q37 -86 37 -180.5t-37 -180.5q-35 -83 -99.5 -147.5t-147.5 -99.5q-86 -36 -180.5 -36zM527.5 771q-92.5 0 -176.5 -36q-82 -35 -144.5 -97.5t-97.5 -144.5
q-35 -84 -35 -176.5t35 -176.5q35 -81 97.5 -144t144.5 -97q84 -36 176.5 -36t176.5 36q82 34 144.5 97t97.5 144q35 84 35 176.5t-35 176.5q-35 82 -97.5 144.5t-144.5 97.5q-84 36 -176.5 36zM527.5 -126q-89.5 0 -171.5 35t-141.5 94.5t-94.5 141.5t-35 172t35 172
t94.5 141t141.5 94t171.5 35t171.5 -35t141.5 -94t94.5 -141t35 -172t-35 -172t-94.5 -141.5t-141.5 -94.5t-171.5 -35zM527.5 749q-87.5 0 -167.5 -34t-138 -92t-92.5 -138t-34.5 -168t34.5 -168t92.5 -138t138 -92.5t167.5 -34.5t168 34.5t138 92.5t92 138t34.5 168
t-34.5 168t-92 138t-138 92t-168 34zM528 -141q-93 0 -178 36t-146.5 97.5t-98 146.5t-36.5 178t36.5 177.5t98 146t146.5 98t178 36.5t177.5 -36.5t146 -98t98 -146t36.5 -177.5t-36.5 -178t-98 -146.5t-146 -97.5t-177.5 -36zM527.5 754q-88.5 0 -169.5 -34.5t-140 -93
t-93.5 -139.5t-34.5 -170t34.5 -170t93.5 -139.5t140 -93.5t169.5 -35t169.5 35t140 93.5t93.5 139.5t34.5 170t-34.5 170t-93.5 139.5t-140 93t-169.5 34.5zM527.5 -146q-94.5 0 -180 36.5t-147.5 98.5t-99 148t-37 180t37 179.5t99 147.5t147.5 99t180 37t180 -37
t147.5 -99t99 -147.5t37 -179.5t-37 -180t-99 -148t-147.5 -98.5t-180 -36.5zM528 770q-92 0 -176 -36t-145 -97t-96.5 -144.5t-35.5 -175.5t35.5 -176t96.5 -144.5t145 -96.5t176 -36t175.5 36t144.5 96.5t96.5 144.5t35.5 176t-35.5 175.5t-96.5 144.5t-144.5 97
t-175.5 36zM527.5 -126q-89.5 0 -171.5 35t-141.5 94.5t-94.5 141.5t-35 172t35 172t94.5 141t141.5 94t171.5 35t171.5 -35t141.5 -94t94.5 -141t35 -172t-35 -172t-94.5 -141.5t-141.5 -94.5t-171.5 -35zM527.5 749q-87.5 0 -167.5 -34t-138 -92t-92.5 -138t-34.5 -168
t34.5 -168t92.5 -138t138 -92.5t167.5 -34.5t168 34.5t138 92.5t92 138t34.5 168t-34.5 168t-92 138t-138 92t-168 34zM184 13l-14 17l7 7q5 6 11 11q39 36 91 66q63 35 142 60q-1 79 -19 97v1q-8 8 -17 19.5t-21 36.5t-9.5 44t18.5 32q-42 118 6 181q31 42 95 54q24 5 48 5
h10l10 -1l-2 -22h-10v0q-3 1 -8 1q-22 0 -44 -5q-56 -11 -82 -45q-41 -56 1 -168l3 -9l-8 -5q-13 -8 -15 -21q-3 -18 11.5 -41.5t28.5 -39.5q26 -23 26 -122v-8l-8 -3q-148 -45 -232 -123l-11 -11zM184 6l-21 25l10 10q6 5 11 11q39 36 93 66q61 35 138 60q-1 71 -16 90
l-1 1q-8 8 -17.5 19.5t-21.5 37.5t-9 47q2 19 17 33q-41 118 8 182q32 43 98 56q24 5 49 5h10l15 -1l-2 -33l-15 1v0v0h-8q-22 0 -43 -4q-54 -10 -78 -43q-40 -54 0 -163l5 -13l-11 -7q-12 -7 -13 -18q-2 -16 11.5 -38.5t27.5 -37.5q27 -25 27 -126v-12l-11 -4
q-147 -44 -231 -122l-10 -10zM177 30l8 -9l4 4l10 10q86 80 235 125l4 1v5q0 97 -24 118v0q-6 6 -13.5 15.5t-19 32t-9.5 38t17 25.5l5 2l-2 5q-43 115 0 173q27 36 85 47q22 5 45 5h8l6 -1v12l-5 1h-9q-24 0 -47 -5q-62 -12 -92 -52q-46 -61 -5 -176l1 -4l-3 -2
q-14 -11 -16 -29q-3 -18 8.5 -41.5t20.5 -34.5t16 -19l1 -1q19 -20 20 -101v-4l-4 -1q-78 -24 -140 -60q-52 -29 -91 -65l-11 -11zM871 13l-8 8q-5 6 -11 11q-84 78 -232 123l-8 3v8q0 100 26 122q15 16 29 39.5t11 41.5q-2 13 -15 21l-8 5l3 9q42 112 1 168q-26 34 -82 45
q-22 5 -44 5q-5 0 -8 -1h-10l-2 22l10 1h10q24 0 48 -5q64 -12 95 -54q48 -63 6 -181q16 -13 18.5 -32t-9.5 -44t-21 -36.5t-17 -19.5v-1q-17 -18 -18 -97q78 -25 141 -60q53 -30 91 -66q6 -5 11 -11l7 -7l-7 -8zM653 271h-1h1zM871 6l-12 12l-10 10q-84 78 -230 122l-12 4
v12q0 102 27 126q14 15 27.5 37.5t11.5 38.5q-1 11 -13 18l-11 7l5 13q40 109 0 163q-24 33 -78 43q-21 4 -43 4h-8l-15 -1l-2 33l15 1h10q25 0 49 -5q66 -13 98 -56q49 -64 8 -182q15 -14 17 -33q3 -21 -9 -47t-21.5 -37.5t-17.5 -19.5l-1 -1q-15 -19 -16 -90
q77 -25 138 -60q54 -30 93 -66l11 -11l10 -10l-10 -12zM617 161l5 -1q148 -45 234 -125l10 -10l4 -4l8 9l-3 3l-11 11q-38 36 -91 65q-62 36 -140 60l-4 1v4q2 81 20 101v0v0v0l1 1q7 8 16 19t20.5 34.5t8.5 41.5q-2 18 -16 29l-3 2l1 4q41 115 -5 176q-30 40 -92 52
q-23 5 -47 5h-9l-5 -1v-12l6 1v0v0h0.5h3h4.5q23 0 45 -5q58 -11 85 -47q43 -58 0 -173l-2 -5l5 -2q15 -10 17 -25.5t-9.5 -38t-19 -32t-12.5 -15.5h-1q-24 -21 -24 -118v-5zM527.5 -143q-93.5 0 -178.5 36q-83 35 -146.5 98.5t-98.5 146.5q-36 85 -36 178.5t36 179.5
q35 82 98.5 146t146.5 98q85 37 178.5 37t179.5 -37q82 -34 145.5 -98t98.5 -146q36 -86 36 -179.5t-36 -178.5q-35 -83 -98.5 -146.5t-145.5 -98.5q-86 -36 -179.5 -36zM527.5 756q-89.5 0 -170.5 -34q-79 -34 -140 -94.5t-94 -139.5q-35 -82 -35 -171.5t35 -170.5
q33 -79 94 -140t140 -94q81 -35 170.5 -35t171.5 35q78 33 139 94t94 140q35 81 35 170.5t-35 171.5q-33 79 -94 139.5t-139 94.5q-82 34 -171.5 34zM527.5 -142q-93.5 0 -178 36.5t-146 98t-98 146.5t-36.5 178t36.5 178t98 146t146 97.5t178 36.5t178 -36.5t146 -97.5
t98 -146t36.5 -178t-36.5 -178t-98 -146.5t-146 -98t-178 -36.5zM527.5 754q-88.5 0 -169.5 -34.5t-139.5 -93.5t-93.5 -139.5t-35 -169.5t35 -170t93.5 -139.5t139.5 -93t169.5 -34.5t169.5 34.5t139.5 93t93.5 139.5t35 170t-35 169.5t-93.5 139.5t-139.5 93.5
t-169.5 34.5z" />
    <glyph glyph-name="duihua" unicode="&#xe600;" 
d="M298 -82q-15 0 -26 6q-25 14 -25 46v92h-35q-61 0 -104.5 43.5t-43.5 104.5v321q0 62 43.5 105.5t104.5 43.5h38q8 0 14.5 -6t6.5 -15t-6.5 -15.5t-14.5 -6.5h-38q-43 0 -74.5 -31t-31.5 -75v-321q0 -43 31.5 -74.5t74.5 -31.5h77v-134q0 -7 4 -8q8 -5 32 8l215 134h269
q44 0 75 31.5t31 74.5v321q0 44 -31 75t-75 31h-421q-9 0 -15.5 6.5t-6.5 15.5t6.5 15t15.5 6h421q62 0 105.5 -43.5t43.5 -105.5v-321q0 -61 -43.5 -104.5t-105.5 -43.5h-257l-205 -128q-27 -16 -49 -16zM787 215h-113q-9 0 -15 6t-6 15t6 15t15 6h113q9 0 15 -6t6 -15
t-6 -15t-15 -6zM787 349h-241q-9 0 -15 6.5t-6 15t6 15t15 6.5h241q9 0 15 -6.5t6 -15t-6 -15t-15 -6.5zM787 475h-372q-9 0 -15.5 6t-6.5 15t6.5 15t15.5 6h372q9 0 15 -6t6 -15t-6 -15t-15 -6z" />
    <glyph glyph-name="fenxiang" unicode="&#xe629;" horiz-adv-x="1304" 
d="M1118 294q-14 0 -24 -10t-10 -24v-321q0 -31 -22 -52.5t-53 -21.5h-716q-31 0 -53 21.5t-22 52.5v674q0 31 22 53t53 22h234q14 0 23.5 10t9.5 24t-9.5 24t-23.5 10h-234q-59 0 -100.5 -42t-41.5 -101v-674q0 -59 41.5 -100.5t100.5 -41.5h716q59 0 101 41.5t42 100.5
v321q0 14 -10 24t-24 10v0zM406 95q-3 -14 5 -25.5t22 -13.5q3 -1 6 -1q12 0 21.5 8t11.5 20q3 15 10.5 44t38.5 104t72 138q83 124 197 195q108 68 244 84l-111 -114q-10 -11 -9.5 -25t10.5 -23q10 -10 24 -10t24 10l171 177v0q1 0 1 1v0h1v1v0l0.5 0.5l0.5 0.5v0q0 1 1 1
v0.5v0.5v0l1 1v0v0.5v0.5l1 1v0v0v0.5t0.5 1l0.5 0.5v1l0.5 0.5l0.5 0.5v1v1v0v1q1 0 1 0.5v0.5v0v1v1v0v1v0v1v0l1 1v0v1v0v0v0v1v0v0v2v0v1v0l-1 1v0v0v0v1v1v0v1v0v0v0v1v0.5t-1 0.5v1v1v0v1v0l-1 1v0v1v0v0v0l-1 1v0q0 1 -1 2v0q0 1 -1 1v1v0v0v0v1h-1v0v1v0l-1 1v0v0
l-0.5 0.5l-0.5 0.5v0l-1 1v0q-1 1 -1 2h-1l-1 1v0l-1 1v0h-1v1h-1v0l-1 1v0h-0.5h-0.5l-0.5 0.5l-0.5 0.5h-0.5t-1 0.5t-1 0.5h-1h-0.5q0 1 -1 1v0l-249 82q-14 5 -26.5 -1.5t-17 -19.5t2 -26t19.5 -17l100 -33q-110 -24 -204 -82q-127 -79 -217 -216q-29 -43 -53 -90.5
t-37 -82.5t-23.5 -70t-13.5 -47.5t-4 -20.5v0zM406 95z" />
    <glyph glyph-name="weibiaoti1" unicode="&#xe609;" 
d="M660 200v0q-15 0 -26 10.5t-11 25.5v296q0 15 11 25.5t26 10.5v0q16 0 26.5 -10.5t10.5 -25.5v-296q0 -15 -10.5 -25.5t-26.5 -10.5zM363 200v0q-16 0 -26.5 10.5t-10.5 25.5v296q0 15 10.5 25.5t26.5 10.5v0q15 0 26 -10.5t11 -25.5v-296q0 -15 -11 -25.5t-26 -10.5z
M512 896q-104 0 -198.5 -40.5t-163 -109t-109 -163.5t-40.5 -199t40.5 -199t109 -163.5t163 -109t198.5 -40.5t199 40.5t163.5 109t109 163.5t40.5 199t-40.5 199t-109 163.5t-163.5 109t-199 40.5zM512 -74q-93 0 -177.5 36.5t-146 97.5t-97.5 146t-36 178t36 178t97.5 146
t146 97.5t177.5 36.5t178 -36.5t146 -97.5t97.5 -146t36.5 -178t-36.5 -178t-97.5 -146t-146 -97.5t-178 -36.5z" />
    <glyph glyph-name="huodong" unicode="&#xe637;" 
d="M958 886q-25 16 -52 -9q-3 -3 -10 -9q-18 -17 -27 -25t-27.5 -20t-34 -15.5t-41.5 -6t-55 2.5t-70 15t-92 27q-97 32 -194 28q-78 -3 -153 -29q-85 -30 -136 -73l-5 -5q-9 -6 -12.5 -16.5t1.5 -20.5l370 -836q5 -11 16 -15.5t22.5 0.5t15.5 16t-1 23l-171 387q0 1 1 2.5
t2 3.5q8 14 12 22t13 22t16.5 22t19 20t24 18.5t29 14.5t36.5 12t44 7t53 3t62 -3q63 -6 121 20q3 2 7 3q52 26 99 75q75 82 116 200q15 44 19 77q5 47 -18 62v0zM895 749q-34 -89 -89 -152q-85 -99 -186 -90q-173 16 -266 -45q-48 -31 -82 -89l-160 360q49 35 112 57
q151 52 307 0q179 -61 273 -43q56 10 108 55q-6 -25 -17 -53v0z" />
    <glyph glyph-name="iconjiudianzhuanqu37" unicode="&#xe770;" 
d="M941 379q-13 0 -22 -9.5t-9 -22.5v-295q0 -28 -20.5 -48t-48.5 -20h-659q-28 0 -48 20t-20 48v620q0 28 20 48.5t48 20.5h215q13 0 22 9t9 22t-9 22t-22 9h-215q-54 0 -92.5 -38.5t-38.5 -92.5v-620q0 -54 38.5 -92.5t92.5 -38.5h659q54 0 92.5 38.5t38.5 92.5v295
q0 13 -9 22.5t-22 9.5v0v0zM286 196q-2 -13 5 -23.5t20 -13.5h6q11 0 19.5 7t10.5 18q3 15 9.5 41.5t35 95t66.5 127.5q76 114 181 179q100 62 224 77l-101 -105q-9 -9 -9 -22t10 -22q9 -9 21 -9q13 0 23 9l157 163v0q1 0 1 0.5v0.5v0l0.5 0.5l0.5 0.5v0.5t0.5 0.5h0.5v0.5
v0.5h0.5h0.5v1v0v0v0l0.5 0.5l0.5 0.5v0v1v0l0.5 0.5l0.5 0.5v0v1l1 1v0.5v0.5v1l0.5 0.5l0.5 0.5v1v1v0v1v0v0v1l1 1v0v0v1v0v1v0v0v0v1v0v0v2v0v0v0v1v1v0v0q0 1 -1 1v0v1v0v1v0v0v0.5v0.5v1v0l-1 1v0v1v0v1v0q-1 0 -1 1v0v0v1v0q-1 1 -1 2v0q-1 0 -1 1v0v1h-1v0v1v0v0h-1
v1v0l-1 1v0v0l-1 1v1q-1 0 -1 1v0h-2v1h-1v1h-1v0q0 1 -1 1v0v0l-1 1v0h-1h-1q0 1 -0.5 1h-0.5l-0.5 0.5t-1 0.5h-0.5h-1v0l-229 76q-13 4 -24.5 -1.5t-15.5 -18t2 -24t18 -15.5l92 -31q-102 -22 -188 -75q-117 -72 -200 -198q-41 -63 -71.5 -137t-38 -102.5t-10.5 -46.5v0
v0zM286 196z" />
    <glyph glyph-name="gupiao" unicode="&#xe662;" 
d="M512 321zM512 895q-104 0 -199 -40.5t-163.5 -109t-109 -163t-40.5 -198.5t40.5 -199t109 -163.5t163.5 -109t199 -40.5t199 40.5t163.5 109t109 163.5t40.5 199t-40.5 198.5t-109 163t-163.5 109t-199 40.5zM512 -91q-97 0 -184.5 37.5t-151.5 101t-101.5 151.5
t-37.5 184.5t37.5 184.5t101.5 151.5t151.5 101t184.5 37.5t184.5 -37.5t151.5 -101t101.5 -151.5t37.5 -184.5t-37.5 -184.5t-101.5 -151.5t-151.5 -101t-184.5 -37.5zM798 601q-25 0 -42 -17t-17 -42q0 -20 11 -36l-120 -143q-9 3 -18 3q-22 0 -38 -14l-115 81q1 6 1 12
q0 25 -17.5 42t-42 17t-42 -17t-17.5 -42q0 -19 11 -34l-99 -117q-11 5 -24 5q-25 0 -42 -17.5t-17 -42t17 -42t42 -17.5t42 17.5t17 42.5q0 15 -7 29l100 120q9 -3 19 -3q23 0 40 15l114 -80q-2 -7 -2 -15q0 -24 17.5 -41.5t42 -17.5t42 17.5t17.5 41.5q0 19 -11 35
l121 144q8 -2 17 -2q25 0 42 17.5t17 42t-17 41.5t-42 17z" />
    <glyph glyph-name="jiantou" unicode="&#xe604;" 
d="M678 407l-287 352q-9 9 -22.5 9t-23 -9.5t-9.5 -23t10 -22.5l269 -330l-267 -328q-10 -9 -10 -22.5t10 -23.5q9 -9 22 -9t23 9l284 349q5 5 8 12q9 21 -7 37z" />
    <glyph glyph-name="benzhou" unicode="&#xe61d;" 
d="M624 460l-135 -331h-46l129 307h-173v39h225v-15zM797 768q-12 0 -20.5 8.5t-8.5 20.5v6q0 12 -8.5 20.5t-20.5 8.5h-6q-12 0 -20.5 -8.5t-8.5 -20.5v-6q0 -12 -8.5 -20.5t-20.5 -8.5h-326q-12 0 -20.5 8.5t-8.5 20.5v6q0 12 -8.5 20.5t-20.5 8.5h-6q-12 0 -20.5 -8.5
t-8.5 -20.5v-6q0 -12 -8.5 -20.5t-20.5 -8.5h-134q-12 0 -20.5 -8.5t-8.5 -20.5v-773q0 -12 8.5 -20.5t20.5 -8.5h837q12 0 20.5 8.5t8.5 20.5v773q0 12 -8.5 20.5t-20.5 8.5h-133zM895 30q0 -12 -8.5 -21t-20.5 -9h-709q-12 0 -20.5 9t-8.5 21v645q0 12 8.5 20.5t20.5 8.5
h70q12 0 20.5 -8.5t8.5 -20.5v-70q0 -12 8.5 -20.5t20.5 -8.5h6q12 0 20.5 8.5t8.5 20.5v70q0 12 8.5 20.5t20.5 8.5h326q12 0 20.5 -8.5t8.5 -20.5v-70q0 -12 8.5 -20.5t20.5 -8.5h6q12 0 20.5 8.5t8.5 20.5v70q0 12 8.5 20.5t20.5 8.5h69q12 0 20.5 -8.5t8.5 -20.5v-645z
" />
    <glyph glyph-name="kaidianguize" unicode="&#xe66b;" 
d="M422 830h468q17 -6 20 -11t4 -10t1 -14.5v-11.5v-635q0 -16 -8 -24q-5 -5 -27 -7q-7 0 -166.5 0.5t-318.5 0t-177 -2.5q-28 -4 -43.5 -30t-6.5 -52q5 -21 24.5 -34t42.5 -12q34 -1 315.5 -1h315.5v32v32q0 10 7.5 17.5t16.5 6.5q10 1 17.5 -6.5t7.5 -17.5v-87
q0 -11 -8.5 -18.5t-19.5 -6.5h-612q-7 0 -21 -0.5t-25 0t-21 2.5q-26 5 -47.5 21t-32.5 39q-6 11 -14 51v664q7 36 12 47q11 24 33 42t49 22q17 3 24 4v-24v-540l97 102l93 -103v565z" />
    <glyph glyph-name="xinxi" unicode="&#xe76d;" 
d="M512 831q-91 0 -174 -35.5t-142.5 -95t-95 -142.5t-35.5 -174t35.5 -174t95 -142.5t142.5 -95t174 -35.5t174 35.5t142.5 95t95 142.5t35.5 174t-35.5 174t-95 142.5t-142.5 95t-174 35.5zM582 220q-29 -44 -57.5 -67t-68.5 -23q-28 5 -41 23.5t-6 40.5l74 246
q4 11 -7 15q-8 3 -26 -16l-44 -55v30q26 38 62.5 64.5t64.5 26.5q26 -3 38.5 -21t7.5 -43l-75 -247q-1 -10 7 -13q9 -4 27 15l45 54v-10.5t-0.5 -11.5t-0.5 -8zM572 541q-22 0 -37 14.5t-15 36.5q0 23 15 37t37 14t37 -14t15 -37q0 -22 -15 -36.5t-37 -14.5z" />
    <glyph glyph-name="gupiao1" unicode="&#xe648;" 
d="M890 107v472h-188v-472h-59v330h-188v-330h-50v173h-189v-173h-61v611h-88v-677h895v66h-72z" />
    <glyph glyph-name="zixuanguselect" unicode="&#xe611;" horiz-adv-x="1040" 
d="M234.5 474q13.5 0 23 9t9.5 23v1l136 124q3 -1 7 -1q14 0 24 12h172q7 -4 14 -4q12 0 21 8.5t11 20.5l181 146q2 -1 4 -1q13 0 22.5 9.5t9.5 23t-9.5 22.5t-23 9t-22.5 -9t-9 -23l-178 -142h-7q-20 0 -29 -18h-158q-10 10 -23 10t-22 -8t-10 -20l-141 -128h-2
q-14 0 -23 -9.5t-9 -23t9 -22.5t22.5 -9zM185 44h107q18 0 30.5 12.5t12.5 29.5v278q0 18 -12.5 30.5t-30.5 12.5h-107q-17 0 -29.5 -12.5t-12.5 -30.5v-278q0 -17 12.5 -29.5t29.5 -12.5zM484 577q-17 0 -29.5 -12.5t-12.5 -29.5v-449q0 -17 12.5 -29.5t29.5 -12.5h107
q18 0 30.5 12.5t12.5 29.5v449q0 17 -12.5 29.5t-30.5 12.5h-107v0zM741 684v-598q0 -17 12.5 -29.5t29.5 -12.5h107q18 0 30.5 12.5t12.5 29.5v598q0 18 -12.5 30.5t-30.5 12.5h-107q-17 0 -29.5 -12.5t-12.5 -30.5zM1007 1h-960q-14 0 -23.5 -9.5t-9.5 -22.5t9.5 -22.5
t23.5 -9.5h960q14 0 23 9.5t9 22.5t-9 22.5t-23 9.5z" />
    <glyph glyph-name="gy" unicode="&#xe622;" 
d="M262 797h-121q-49 0 -84.5 -35t-35.5 -85v-664q0 -49 35.5 -84.5t84.5 -35.5h664q50 0 85 35.5t35 84.5v121h-60v-91q0 -37 -26.5 -63t-63.5 -26h-604v0q-37 0 -63 26t-26 63v0v604q0 37 26 63.5t63 26.5h91v60zM865 224q0 13 9 22t21 9t21 -9t9 -22v-90h-60v90zM262 797
h90q13 0 22 -9t9 -21q0 -13 -9 -21.5t-22 -8.5h-90v60zM732 369q-3 0 -8 0.5t-8.5 0.5t-6.5 -1q-34 26 -24 48v47q-62 4 -129 -21.5t-122 -70t-97.5 -102t-58.5 -115.5q-16 51 -16 107q0 76 37.5 154t96 139t136 101.5t153.5 45.5v47q-10 22 24 48q3 -1 6.5 -1t8.5 0.5
t8.5 0.5t9 -1t9.5 -1t5 2l214 -171q21 -17 21 -43v0q0 -27 -21 -43l-214 -171q-1 2 -5 2t-9.5 -1t-9.5 -1v0z" />
    <glyph glyph-name="gupiao-copy" unicode="&#xe602;" 
d="M231 292q15 -12 33 -12h6q22 3 35 20l106 141l105 -89q17 -15 39 -12q21 2 35 19l242 312q2 3 4 8l43 50q17 20 10.5 31.5t-32.5 7.5l-200 -32q-26 -5 -31 -20.5t15 -33.5l40 -37l-139 -180l-106 90q-17 14 -39 11.5t-36 -19.5l-106 -141l-51 42q-16 13 -37.5 11
t-35 -18.5t-11.5 -38t19 -34.5zM834 527l-236 -287q-12 -16 -50 16l-95 84q-16 13 -44 -21l-110 -135q-11 -14 -43 13l-96 76q-13 13 -23.5 2.5t-10.5 -35.5l1 -205q0 -13 9 -22.5t22 -9.5h712q13 0 22 9t9 22q1 443 1 476q0 34 -22 39.5t-46 -22.5z" />
    <glyph glyph-name="fenxiang1" unicode="&#xe746;" 
d="M205 384zM127 384q0 -32 23 -55t55 -23t55 23t23 55t-23 55t-55 23t-55 -23t-23 -55zM512 384zM434 384q0 -32 23 -55t55 -23t55 23t23 55t-23 55t-55 23t-55 -23t-23 -55zM819 384zM741 384q0 -32 23 -55t55 -23t55 23t23 55t-23 55t-55 23t-55 -23t-23 -55z" />
    <glyph glyph-name="niushi" unicode="&#xe66e;" 
d="M253 518q0 6 4 8.5t9 2.5l98 -14q5 -1 8 -5t2 -9q-3 -23 -20 -38t-40 -15q-5 0 -9 1q-25 4 -41 24q-15 20 -11 45zM477 515l98 14q5 0 8.5 -2.5t4.5 -7.5q4 -26 -11 -46q-16 -20 -41 -24q-5 -1 -9 -1q-23 1 -40 16t-20 37q-1 5 2 9t8 5zM106 536l-29 -47q35 -59 100 -35
l11 5v0v-10.5t3 -28t9 -43t20.5 -52t34.5 -58.5q-4 -13 -4 -28q0 -44 30 -76l133 133q31 31 74 31t74 -31l26 -26q31 43 47.5 90.5t16.5 72.5l1 26q3 -2 7.5 -4t19 -5t27.5 -1.5t29 11.5t28 29l-29 47q104 75 106 162q0 37 -19.5 72t-41 55t-46.5 37q-12 8 -27 7.5t-27 -9.5
q-13 -10 -17 -25t2 -30q16 -46 4 -61q-12 -14 -57 -11l-15 25q-15 22 -40.5 29.5t-49.5 -4.5l-43 -22q-44 -22 -87 0l-43 22q-24 12 -50 4.5t-40 -29.5l-15 -25q-45 -4 -57 11q-12 14 5 61q5 14 1 29.5t-16 25.5q-12 9 -27.5 9.5t-27.5 -8.5q-42 -27 -75 -68.5t-32 -94.5
q1 -86 106 -162zM1024 431l-308 -26l111 -113l-168 -166l-128 125l-298 -296l56 -57l242 240l128 -124l224 222l111 -113z" />
    <glyph glyph-name="gupiao2" unicode="&#xe612;" 
d="M229 -42q-18 0 -31 13t-15 32q2 19 15.5 32t30.5 13t30.5 -13t15.5 -32q-2 -19 -15 -32t-31 -13zM380 11v88q0 22 13.5 37.5t32.5 15.5q20 0 33.5 -15.5t13.5 -37.5v-88q0 -22 -13.5 -37.5t-33 -15.5t-33 15.5t-13.5 37.5zM573 11v239q0 22 13.5 37.5t32.5 15.5
q20 0 33.5 -15.5t13.5 -37.5v-239q0 -22 -13.5 -37.5t-33.5 -15.5q-19 0 -32.5 15.5t-13.5 37.5zM615 664q-11 5 -15 16.5t0 21.5q5 10 14 15l5 2l123 52q10 5 20 0t15 -15l43 -128q0 -1 1 -2q6 -11 1 -24q-5 -11 -16 -15.5t-21 0.5q-1 1 -2 1t-2 1l-47 22
q-39 -64 -80.5 -114.5t-119.5 -113.5q-39 -32 -85 -59t-83 -42.5t-69.5 -26.5t-49 -15t-17.5 -4h-1q-6 -3 -14 -3q-15 0 -25 10.5t-10 26.5q0 27 25 35h1h6q158 34 298 153q42 35 86.5 89t67.5 96l-45 20zM770 11v443q0 22 14 37.5t33 15.5q20 0 33.5 -15.5t13.5 -37.5v-443
q0 -22 -14 -37.5t-33 -15.5t-33 15.5t-14 37.5z" />
    <glyph glyph-name="icon-redian" unicode="&#xe60d;" 
d="M544 -101zM937 349q-13 93 -61 180.5t-104 150.5q13 -96 -40 -144q-5 -4 -11 -4q-11 0 -15 10q-1 1 -1 2q-21 78 -52.5 142t-67 104t-64.5 64t-58 40q-3 2 -7 2v0q-1 -3 -1 -6v-1q2 -83 -21.5 -172t-73 -166t-115.5 -112q-4 -2 -8 -2q-6 0 -11 4.5t-5 10.5l-1 13v0
q0 53 -16 103q-20 -67 -54 -128q-16 -29 -33.5 -72.5t-25.5 -76.5q-21 -105 11 -193t112 -143q42 -29 107 -52t115 -26q3 0 7.5 -0.5t8 -1l3.5 -0.5q36 -3 72 -3h26q37 1 85.5 12.5t81.5 27.5q53 29 108.5 89t80.5 116q14 33 23.5 82t9.5 85q0 33 -5 65zM666 -42
q-19 -24 -55 -41t-67 -18q-16 -2 -33 -2q-32 0 -64 5q-41 7 -74 30l-1 1q-29 18 -49 55t-20 71q0 22 6 43q13 36 34 68q17 23 31 59t17 64v0v1v0h1q16 -16 27 -43.5t11 -49.5q0 -9 -2 -19v-2q0 -5 3.5 -8.5t8.5 -3.5t9 4q74 86 36 233q78 -46 135.5 -105t84.5 -121
q17 -39 17 -81q0 -34 -16.5 -75t-39.5 -65v0z" />
    <glyph glyph-name="icon-jingu" unicode="&#xe60e;" horiz-adv-x="1066" 
d="M1041 -77h-27v664q0 22 -15.5 37.5t-37.5 15.5v0h-179v0q-22 0 -38 -15.5t-16 -37.5v-664h-51v917v1q0 23 -16 39t-38 16h-179q-23 0 -38.5 -16t-15.5 -39v-1v-917h-52v407v0q0 22 -15.5 38t-37.5 16h-179q-22 0 -37.5 -16t-15.5 -38v0v-407h-27q-11 0 -18.5 -7.5
t-7.5 -18t7.5 -18t18.5 -7.5h1015q10 0 17.5 7.5t7.5 18t-7.5 18t-17.5 7.5z" />
    <glyph glyph-name="icon-celve" unicode="&#xe60f;" 
d="M254 640q41 29 105.5 53t114.5 29q10 1 10 12q0 2 -1 5l-64 134q-5 8 -15 15t-20 8h-245q-10 0 -13.5 -7t1.5 -16l110 -229q3 -7 10 -7q4 0 7 3zM777 640q3 -2 7 -2q7 0 10 6l110 229q5 9 1.5 16t-13.5 7h-246q-9 -1 -19.5 -8t-14.5 -15l-64 -134q-2 -3 -2 -5
q0 -11 11 -12q50 -5 114.5 -29t105.5 -53zM515 666h-3q-108 0 -199.5 -53t-144.5 -144.5t-53 -199.5t53 -199.5t144.5 -144.5t199.5 -53t199.5 53t144.5 144.5t53 199.5v2q0 107 -52.5 198t-143.5 144t-198 53zM730 306l-82 -82l19 -117q5 -29 -9.5 -40t-40.5 3l-102 55
l-101 -55q-26 -14 -40.5 -3t-9.5 41l19 116l-82 82q-21 21 -15.5 38.5t34.5 21.5l114 17l51 106q12 27 30 27t31 -27l51 -106l114 -17q29 -4 34.5 -21.5t-15.5 -38.5z" />
    <glyph glyph-name="icon-jihua" unicode="&#xe610;" 
d="M646 706v0q-10 0 -17 7q-8 7 -13 17t-7 21q-2 9 -3 18v127h2q9 0 17 -3q11 -3 20 -9q15 -10 28 -21q17 -14 42 -37q22 -19 43 -41q15 -18 24 -30q7 -9 10 -20q2 -7 2 -14v-15h-148v0zM763 322h2q44 0 85 -17q40 -17 70 -48q27 -28 46 -74.5t19 -85t-19 -85.5t-46 -75
q-30 -30 -70 -48q-41 -17 -85 -17h-2h-1q-44 0 -84 17t-71 48q-30 32 -47 72q-18 42 -18 88t18 88q17 40 47 72q31 31 71 48t84 17h1zM889 61q11 1 16 11q7 11 7 24t-7 25q-5 9 -16 10h-96v90q0 9 -8 14q-10 6 -22 6q-1 0 -2 0.5t-2 0.5q-11 0 -20 -7q-8 -5 -8 -14v-113
q-2 -6 -2 -12v-1q0 -13 7 -24q5 -9 16 -10h137v0zM477 128q-1 -7 -1 -14v-1v-15v-2q0 -43 13 -85q13 -41 36 -77h-356q-22 1 -42 12q-23 11 -42 29q-20 19 -33 42t-13 49v698q0 23 10 45q10 23 26 42t38 32q20 13 44 13h385v-128q0 -21 6 -42q6 -23 19 -42t33 -31
q21 -13 45 -13h3h146v-254q-8 2 -16 2h-1h-18h-3q-30 0 -69.5 -10.5t-65.5 -25.5t-55 -43t-45 -53h-293v0q-26 0 -44.5 -18.5t-18.5 -44.5v-1v-1q0 -26 18 -44q18 -19 44 -19h1h249v0zM228 512h-1q-26 0 -44 -19q-18 -18 -18 -44v-1.5v-0.5q0 -26 18 -44q19 -18 44 -18h1
h377h1q26 0 43 18q19 18 19 44v1v1q0 26 -19 44q-17 19 -43 19h-1h-377z" />
    <glyph glyph-name="jin" unicode="&#xe618;" 
d="M768 104h151l-14 -115h-882l13 115h147l-65 144h139l65 -144h85l19 176h-338l13 114h338l11 95h-294l5 47h-77l110 293h727l44 -292h-76l-5 -47h-294l-10 -95h338l-14 -115h-338l-19 -176h82l97 144h138zM274 716l-40 -111h596l-15 111h-541z" />
    <glyph glyph-name="ping" unicode="&#xe61a;" 
d="M137 471h-59l13 116h198l-51 -460q-2 -15 7 -26q7 -10 21 -10h60l-51 -101h-79q-25 0 -42 10q-20 10 -32 28q-13 15 -20 41q-6 22 -3 50zM172 652l-53 177h164l53 -177h-164zM378 829h599l-13 -115h-228l-40 -354h250l-13 -115h-249l-29 -256h-139l29 256h-255l13 115
h255l40 355h-233zM527 412h-145l-39 235h145zM835 664h145l-92 -252h-146z" />
    <glyph glyph-name="san" unicode="&#xe61b;" 
d="M902 6h-871l13 120h871zM928 693h-769l13 120h770zM163 366l13 119h687l-13 -119h-687z" />
    <glyph glyph-name="hu" unicode="&#xe61c;" 
d="M951 427q-4 -47 -37 -79q-32 -33 -71 -33h-596l-22 -196l-62 -127h-138l62 127l70 620h335l-28 90h164l26 -90h333zM795 435q10 0 17 7q8 9 8 19l19 164h-558l-21 -190h535z" />
    <glyph glyph-name="duan1" unicode="&#xe61e;" 
d="M24 -9l155 378h-112l12 113h124l19 175h-122l60 171h130l-20 -56h219l-13 -116h-123l-19 -175h124l-13 -113h-133l-17 -42h54l55 -337h-134l-32 202l-84 -202h-130v2zM850 104h69l-13 -113h-481l12 113h66l-17 180h134l15 -180h82l56 180h132zM476 318l40 359h453
l-14 -116l-13 -116q-3 -26 -14 -50q-11 -22 -28 -41q-16 -15 -38 -27q-24 -11 -44 -11h-342v2zM519 828h479l-13 -115h-479zM642 562l-14 -128h143q13 0 24 10q10 11 12 27l10 91h-175z" />
    <glyph glyph-name="re" unicode="&#xe61f;" 
d="M174 -11h-155l73 181h155zM109 752h88l9 78h139l-9 -78h59l-13 -116h-59l-10 -83h53l-59 -69l-15 -135q-3 -26 -14 -50q-13 -23 -29 -41q-16 -16 -38 -28q-24 -10 -43 -10h-102l49 102h3q14 0 24 10q11 11 13 25l3 25h-91l101 112l16 142h-88zM290 170h154l32 -180h-154z
M502 566l25 70h-103l13 116h133l30 78h133l-30 -78h226l-42 -380l41 -156h-140l-40 156l29 264h-118l-64 -170l102 -210h-137l-24 49l-32 -85h-132l90 240l-52 106h92zM660 170l32 -180h-154l-32 180h154zM877 170l31 -180h-154l-31 180h154z" />
    <glyph glyph-name="wo" unicode="&#xe620;" 
d="M798 439h175l-161 -150l58 -290h-144l-35 176l-147 -138h-176l296 277l-40 202h-259l-7 -53h144l-164 -182l-17 -155q-4 -27 -15 -49q-11 -23 -27 -40q-16 -16 -38 -28q-24 -10 -43 -10h-184l49 100h89q13 0 23 11q11 10 12 25l3 28h-133l153 169l20 182h-156l12 114h156
l8 78l-157 -17l12 105l412 46l-11 -104l-118 -12l-10 -94h225l-41 207h145l39 -207h70l-39 207h133l58 -322h-200l17 -87z" />
    <glyph glyph-name="zhong" unicode="&#xe621;" 
d="M630 838l-8 -70h371l-10 -90l-2 -19l-45 -406q-5 -47 -37 -79q-33 -33 -72 -33h-275l-15 -138h-135l16 138h-373l1 11l11 97l46 409l2 19l11 90h372l9 70h133v1zM430 250l46 409h-238l-47 -409h239zM610 659l-46 -409h215q9 0 17 7q8 8 8 18l43 384h-237z" />
  </font>
</defs>
</svg>
